<?xml version="1.0" encoding="utf-8"?>
<!-- Generator: Adobe Illustrator 15.0.2, SVG Export Plug-In . SVG Version: 6.00 Build 0)  -->
<!DOCTYPE svg PUBLIC "-//W3C//DTD SVG 1.1//EN" "http://www.w3.org/Graphics/SVG/1.1/DTD/svg11.dtd">
<svg version="1.1" id="Layer_1" xmlns="http://www.w3.org/2000/svg" xmlns:xlink="http://www.w3.org/1999/xlink" x="0px" y="0px"
	 width="770.916px" height="224.554px" viewBox="0 0 770.916 224.554" enable-background="new 0 0 770.916 224.554"
	 xml:space="preserve">
<g>
	<g>
		<path d="M328.145,217.183c-5.28,0-9.918-4.135-9.96-9.729c0.065-5.673,4.811-9.639,9.96-9.653
			c5.197,0.015,9.869,4.054,9.894,9.653C338.004,213.039,333.423,217.183,328.145,217.183z"/>
		<path d="M362.415,202.33c1.471,1.619,3.256,2.189,4.966,2.204c1.226,0,2.419-0.451,3.767-1.413
			c1.324-0.922,2.697-2.353,3.964-3.876l2.73-3.271l6.826,7.089l2.517,2.608l-2.483,2.646c-4.179,4.597-9.508,8.636-17.074,8.636
			h-0.173c-4.482,0-9.803-1.373-14.137-5.321c-4.343-3.94-7.204-10.363-7.179-19.145c-0.009-8.775,2.533-15.323,6.693-19.508
			c4.154-4.204,9.549-5.824,14.394-5.815c8.182-0.058,14.252,4.755,18.102,10.715l2.13,3.199l-11.737,7.757l-1.923-3.867
			c-0.889-1.768-1.892-3.198-2.937-4.053c-1.052-0.855-2.022-1.291-3.634-1.317c-1.95,0.026-3.61,0.625-5.026,2.248
			c-1.422,1.651-2.722,4.719-2.722,10.106C359.511,197.634,360.933,200.688,362.415,202.33z"/>
		<path d="M431.711,177.361c-2.542-5.379-8.308-10.328-16.836-10.197c-4.736-0.025-9.892,1.719-13.741,5.921
			c-3.859,4.187-6.127,10.534-6.127,19.016c-0.009,8.849,2.492,15.239,6.464,19.311c3.989,4.085,9.063,5.551,13.404,5.551h0.067
			c4.728,0,9.886-1.695,13.709-5.865c3.873-4.179,6.186-10.518,6.176-18.996C434.796,188.463,434.383,182.724,431.711,177.361z
			 M419.943,201.196c-0.562,1.166-1.187,1.957-1.91,2.457c-0.748,0.521-1.62,0.866-3.158,0.881c-1.553-0.015-2.41-0.36-3.149-0.863
			c-1.052-0.725-1.982-2.213-2.59-4.391c-0.576-2.141-0.788-4.78-0.788-7.18c-0.026-3.207,0.401-6.859,1.494-9.162
			c0.553-1.187,1.192-1.966,1.901-2.478c0.722-0.509,1.579-0.854,3.132-0.863c1.538,0.009,2.41,0.354,3.135,0.872
			c1.084,0.742,2.023,2.254,2.64,4.443c0.6,2.154,0.838,4.801,0.838,7.188C421.496,195.282,421.042,198.916,419.943,201.196z"/>
	</g>
	<g>
		<polygon points="216.46,223.408 222.587,201.22 69.971,224.554 242.72,174.451 242.744,195.776 308.693,185.062 		"/>
		<polygon points="554.488,223.408 464.888,185.062 528.196,195.776 528.229,174.451 700.954,224.554 548.347,201.22 		"/>
	</g>
	<g>
		<path d="M671.43,74.659c-0.791-13.817-2.204-26.992-5.511-38.136c-5.815-19.548-19.408-38.604-46.359-36.096
			c-6.359,0.592-11.728,2.089-15.824,4.392c-17.016,9.516-22.805,33.044-23.547,57.347c-1.093,35.471,1.507,67.291,18.028,87.712
			c7.961,9.819,21.712,18.502,37.175,18.56c13.297,0.035,22.738-7.484,27.582-16.192C673.008,134.168,672.991,101.404,671.43,74.659
			z M644.353,115.805c-0.953,9.515-4.931,24.524-11.897,25.964c-9.806,2.056-16.976-9.427-20.232-19.205
			c-3.207-9.498-4.597-21.852-5.158-33.76c-0.59-12.221-0.482-27.575,0.733-37.115c1.209-9.474,4.425-24.508,14.704-25.625
			c11.153-1.209,17.626,13.373,19.655,22.607c2.1,9.565,2.938,22.256,2.938,32.732C645.095,91.938,645.53,104.24,644.353,115.805z"
			/>
		<path d="M571.611,102.531c-1.695-14.187-8.974-24.41-17.664-32.075c13.562-10.691,14.097-37.42,4.769-51.657
			c-3.01-4.613-7.836-9.128-12.137-11.142c-16.467-7.806-37.05-4.819-60.384-5.725v138.735c7.312,1.026,15.364,2.491,23.136,3.503
			c7.615,0.986,16.095,1.76,23.256,2.228C560.632,148.25,574.521,127.146,571.611,102.531z M512.355,26.227
			c7.815,0,16.632-0.634,21.334,3.248c3.817,3.125,4.663,9.153,4.425,13.973c-0.566,12.378-11.349,17.765-25.759,14.845V26.227z
			 M539.595,120.4c-7.162,3.858-21.662,0.387-27.239-0.657V82.612c11.302-0.132,23.218,1.898,28.71,10.436
			C545.541,100.071,547.294,116.266,539.595,120.4z"/>
		<path d="M267.301,19.73C260.821,8.29,247.44-1.35,228.344,0.279c-6.292,0.551-11.67,1.792-15.733,3.931
			c-5.699,2.944-10.427,7.698-13.809,12.691c-9.013,13.339-13.182,33.958-13.059,58.737c0.09,23.513,1.39,47.676,11.241,61.4
			c7.476,10.462,22.139,15.85,39.188,11.671c21.383-5.23,31.96-20.808,36.91-40.742c3.389-13.669,3.578-30.166,3.348-46.072
			C276.159,45.866,273.371,30.429,267.301,19.73z M249.471,80.876c-0.518,15.297-1.661,32.124-10.584,40.585
			c-2.821,2.676-7.606,5.545-13.192,4.565c-6.751-1.184-10.543-12.352-11.924-22.024c-1.514-10.577-1.044-19.992-1.217-31.104
			c-0.14-9.68,0.929-20.873,2.87-28.801c1.883-7.829,5.674-18.019,14.409-19.467c12.822-2.13,17.074,11.661,18.759,23.439
			C250.22,59.378,249.792,71.542,249.471,80.876z"/>
		<path d="M115.672,97.275v73.187c-8.897,2.419-17.057,5.182-26.127,7.467V1.932h26.127v68.895l32.733-3.405V1.932h25.601V156.9
			c-8.906,1.975-17.13,3.751-25.601,6.117V93.533L115.672,97.275z"/>
		<polygon points="316.417,137.919 316.417,26.16 280.714,26.16 280.714,2.022 378.246,2.022 378.246,26.16 342.561,26.16 
			342.561,136.232 		"/>
		<path d="M448.209,5.042C444.31,2.788,438.175,1.118,431.644,0h-9.941c-21.014,2.048-31.377,16.119-36.055,32.633
			c-7.08,25.035-6.875,66.451,5.897,86.799c6.67,10.616,17.748,18.536,33.482,19.517c38.102,2.344,47.328-26.812,47.846-56.519
			C473.416,48.818,470.609,18.068,448.209,5.042z M432.295,115.056c-3.009,1.053-6.638,1.143-10.683-0.328
			c-13.103-4.763-13.134-26.532-13.134-45.077c0-10.1,0.436-21.457,1.817-27.583c1.849-8.134,5.478-17.493,14.73-18.504
			c12.127-1.325,16.364,10.469,18.388,19.162c1.884,8.076,2.213,17.74,2.213,26.589C445.627,84.726,444.269,110.853,432.295,115.056
			z"/>
		<path d="M37.905,1.932H0v207.15c8.611-3.577,17.74-6.702,26.136-10.477v-74.001c30.718-6.44,48.54-23.785,51.886-56.591
			C81.346,35.504,71.92,2.458,37.905,1.932z M51.902,62.603c-0.806,17.756-8.117,31.58-25.767,32.864V31.425v-1.12h5.321
			c5.453-0.106,10.133-0.196,13.455,2.467C51.376,37.979,52.388,51.13,51.902,62.603z"/>
		<polygon points="770.916,2.056 673.593,2.056 673.593,26.16 709.653,26.16 709.653,187.748 735.716,197.585 735.716,26.16 
			770.916,26.16 		"/>
	</g>
</g>
</svg>
