<svg width="100" height="100" viewBox="0 0 100 100" fill="none" xmlns="http://www.w3.org/2000/svg">
<path fill-rule="evenodd" clip-rule="evenodd" d="M6 6V94H94V6H6Z" fill="white"/>
<path fill-rule="evenodd" clip-rule="evenodd" d="M0 100V0H100V100H0ZM44.4953 80.1031C45.319 79.8127 45.9448 79.4299 46.3725 78.9547V74.2181H41.6597V76.127H43.5923V77.9171C43.2385 78.2392 42.6999 78.4002 41.9765 78.4002C41.1317 78.4002 40.5112 78.1124 40.1152 77.5369C39.7244 76.956 39.5291 76.09 39.5291 74.9389V74.2419C39.5344 73.1436 39.7271 72.2987 40.1073 71.7073C40.4875 71.1159 41.0261 70.8202 41.7231 70.8202C42.3039 70.8202 42.7528 70.9575 43.0696 71.2321C43.3864 71.5067 43.5923 71.966 43.6874 72.6103H46.3645C46.2325 71.306 45.7679 70.3265 44.9705 69.6717C44.1785 69.0117 43.0643 68.6816 41.628 68.6816C40.6459 68.6816 39.7799 68.9113 39.0301 69.3707C38.2855 69.8248 37.7126 70.477 37.3113 71.3271C36.91 72.172 36.7093 73.1621 36.7093 74.2973L36.7173 75.2953C36.7806 76.9428 37.2638 78.2286 38.1667 79.1527C39.0697 80.0767 40.2762 80.5388 41.7864 80.5388C42.7686 80.5388 43.6715 80.3936 44.4953 80.1031ZM9.68555 68.848V80.3804H14.3666C15.7712 80.3698 16.8299 80.082 17.5428 79.517C18.2609 78.9467 18.62 78.0966 18.62 76.9666C18.62 76.3435 18.4589 75.8155 18.1368 75.3825C17.8147 74.9495 17.3527 74.6538 16.7507 74.4954C17.284 74.2947 17.688 73.9832 17.9626 73.5607C18.2371 73.1383 18.3744 72.6287 18.3744 72.0321C18.3744 70.9971 17.9863 70.2077 17.2101 69.6638C16.4392 69.1199 15.3118 68.848 13.828 68.848H9.68555ZM12.4657 78.2418V75.4775H14.4141C15.3699 75.4828 15.8478 75.966 15.8478 76.927C15.8478 77.3441 15.7131 77.6689 15.4438 77.9012C15.1745 78.1283 14.789 78.2418 14.2874 78.2418H12.4657ZM13.9151 73.6558H12.4657V70.9945H13.828C14.4511 70.9945 14.9026 71.1027 15.1824 71.3192C15.4623 71.5304 15.6022 71.8789 15.6022 72.3647C15.6022 72.7871 15.4729 73.1066 15.2141 73.3231C14.9554 73.5396 14.5224 73.6505 13.9151 73.6558ZM23.2611 76.3092H24.766L26.8016 80.3804H29.7798V80.2616L27.3719 75.6122C28.0636 75.2848 28.5706 74.8571 28.8927 74.329C29.22 73.801 29.3837 73.1357 29.3837 72.333C29.3837 71.2242 28.9983 70.3661 28.2273 69.7588C27.4564 69.1516 26.3871 68.848 25.0195 68.848H20.481V80.3804H23.2611V76.3092ZM25.0195 74.1627H23.2611V70.9945H25.0195C25.5423 70.9945 25.9383 71.137 26.2076 71.4222C26.4769 71.702 26.6115 72.0901 26.6115 72.5865C26.6115 73.0829 26.4769 73.471 26.2076 73.7508C25.9436 74.0254 25.5475 74.1627 25.0195 74.1627ZM34.6741 80.3804H31.9019V68.848H34.6741V80.3804ZM58.1143 80.3804H55.35V75.5646H51.255V80.3804H48.4749V68.848H51.255V73.4261H55.35V68.848H58.1143V80.3804ZM65.6347 70.9945H69.096V68.848H59.4566V70.9945H62.8546V80.3804H65.6347V70.9945ZM79.5556 74.8518C79.5556 75.9765 79.347 76.9719 78.9299 77.8379C78.5127 78.7038 77.9187 79.3718 77.1478 79.8418C76.3821 80.3064 75.5082 80.5388 74.526 80.5388C73.5439 80.5388 72.6726 80.3144 71.9123 79.8655C71.1519 79.4114 70.5578 78.7646 70.1301 77.925C69.7077 77.0854 69.4859 76.1217 69.4648 75.034V74.3845C69.4648 73.2545 69.6707 72.2591 70.0826 71.3984C70.4997 70.5324 71.0938 69.8644 71.8647 69.3945C72.6409 68.9245 73.5228 68.6896 74.5102 68.6896C75.4871 68.6896 76.3583 68.9219 77.124 69.3866C77.8897 69.8512 78.4837 70.5139 78.9061 71.3746C79.3338 72.2301 79.5503 73.2122 79.5556 74.3211V74.8518ZM76.728 74.3686C76.728 73.2228 76.5352 72.3542 76.1498 71.7627C75.7696 71.1661 75.2231 70.8677 74.5102 70.8677C73.1162 70.8677 72.3796 71.9132 72.3004 74.0043L72.2924 74.8518C72.2924 75.9818 72.4799 76.8504 72.8548 77.4577C73.2297 78.0649 73.7868 78.3685 74.526 78.3685C75.2283 78.3685 75.7696 78.0702 76.1498 77.4735C76.53 76.8768 76.7227 76.0188 76.728 74.8993V74.3686ZM88.0186 80.3804H90.7829V68.848H88.0107V76.024L83.9316 68.848H81.1515V80.3804H83.9316V73.2043L88.0186 80.3804ZM49.8213 58.5417H68.0135V51.5339H64.6633L68.2843 46.4666C68.6254 45.9696 68.8899 45.5235 69.0841 45.1959L69.0842 45.1958C69.2904 44.848 69.4174 44.6337 69.473 44.6337H69.5814C69.5814 44.6337 70.0673 45.4955 70.824 46.4666L74.7157 51.5339H71.2565V58.5417H90.3396V51.5339H86.266L76.9703 39.5149L86.4278 27.0089H90.4458V20H72.2283V27.0084H75.4707L71.903 31.8599C71.4034 32.5363 71.0456 33.1189 70.8601 33.4208C70.7647 33.5761 70.715 33.6571 70.715 33.6385H70.6071C70.6071 33.6385 70.1206 32.8293 69.3645 31.8599L65.6902 27.0084H69.0404V20H51.2096H50.8952H32.1948V27.017H35.8183V43.8562C35.8183 45.6353 35.5469 47.039 34.9582 48.1735C33.9619 50.0086 32.3322 50.8715 30.2479 50.8715C28.0285 50.8715 26.2626 49.8454 25.4025 48.1173C24.9032 47.0923 24.5871 45.5814 24.5871 43.8557V27.017H28.21V20H9.54297V27.017H13.8593V43.8557C13.8604 47.9019 14.8304 51.4651 17.0968 54.0549C19.9009 57.2932 24.7016 59.2361 30.2038 59.2361C35.2737 59.2361 40.3986 57.5631 43.3647 53.8939C45.3602 51.4118 46.5472 47.6853 46.5472 43.8551V27.017H51.2096V27.0084H54.137L63.216 38.8677L53.7045 51.5345H49.8208V58.5417H49.8213Z" fill="#C9003A"/>
</svg>
