<?xml version="1.0" encoding="utf-8"?>
<!-- Generator: Adobe Illustrator 26.2.1, SVG Export Plug-In . SVG Version: 6.00 Build 0)  -->
<svg version="1.1" xmlns="http://www.w3.org/2000/svg" xmlns:xlink="http://www.w3.org/1999/xlink" x="0px" y="0px"
	 viewBox="0 0 484.88 150.7" style="enable-background:new 0 0 484.88 150.7;" xml:space="preserve">
<style type="text/css">
	.st0{fill:#000000;}
</style>
<g id="A">
	<path class="st0" d="M190.89,148.17H36.38c-2.54,0-4.63-1.09-5.73-3c-1.1-1.9-1-4.26,0.27-6.46L108.18,4.9
		c1.27-2.2,3.27-3.46,5.46-3.46c0,0,0,0,0,0c2.2,0,4.19,1.26,5.46,3.46l77.25,133.81c1.27,2.2,1.37,4.56,0.27,6.46
		C195.52,147.07,193.43,148.17,190.89,148.17z M38.23,140.79l150.81,0.01l-75.4-130.61L38.23,140.79z M112.64,8.46L112.64,8.46
		L112.64,8.46z"/>
</g>
<g id="V">
	<path class="st0" d="M84.43,148.15C84.43,148.15,84.43,148.15,84.43,148.15c-2.2,0-4.19-1.26-5.46-3.46L1.72,10.88
		c-1.27-2.2-1.37-4.56-0.27-6.46c1.1-1.9,3.19-3,5.73-3h154.51c2.54,0,4.63,1.09,5.73,3c1.1,1.91,1,4.26-0.27,6.46L89.9,144.69
		C88.62,146.89,86.63,148.15,84.43,148.15z M85.44,141.13L85.44,141.13L85.44,141.13z M9.03,8.79l75.4,130.61L159.84,8.8L9.03,8.79z
		"/>
</g>
<g id="Voxel">
	<g>
		<path class="st0" d="M246.03,29.21l12.83,32.35l12.89-32.35h15.01l-22.41,53.14h-10.99l-22.34-53.14H246.03z"/>
		<path class="st0" d="M287.47,55.78c0-3.95,0.73-7.62,2.18-11.03c1.46-3.41,3.48-6.38,6.06-8.92c2.58-2.54,5.67-4.52,9.27-5.95
			c3.59-1.43,7.55-2.15,11.87-2.15c4.27,0,8.22,0.72,11.84,2.15c3.62,1.43,6.73,3.42,9.34,5.95c2.61,2.54,4.64,5.51,6.09,8.92
			c1.46,3.41,2.18,7.08,2.18,11.03s-0.73,7.62-2.18,11.03c-1.46,3.41-3.49,6.38-6.09,8.92c-2.61,2.54-5.72,4.52-9.34,5.95
			c-3.62,1.43-7.56,2.15-11.84,2.15c-4.32,0-8.28-0.72-11.87-2.15c-3.59-1.43-6.68-3.42-9.27-5.95c-2.58-2.54-4.6-5.51-6.06-8.92
			C288.19,63.4,287.47,59.73,287.47,55.78z M301.91,55.78c0,2.11,0.4,4.06,1.2,5.85c0.8,1.78,1.88,3.34,3.24,4.65
			c1.36,1.32,2.95,2.34,4.75,3.07c1.81,0.73,3.72,1.09,5.74,1.09c2.02,0,3.94-0.36,5.74-1.09c1.81-0.73,3.4-1.75,4.79-3.07
			c1.38-1.31,2.48-2.87,3.28-4.65c0.79-1.79,1.2-3.74,1.2-5.85c0-2.11-0.4-4.06-1.2-5.85c-0.8-1.78-1.9-3.33-3.28-4.65
			c-1.39-1.32-2.98-2.34-4.79-3.07c-1.81-0.73-3.72-1.09-5.74-1.09c-2.02,0-3.94,0.36-5.74,1.09c-1.81,0.73-3.4,1.75-4.75,3.07
			c-1.36,1.32-2.45,2.87-3.24,4.65C302.31,51.72,301.91,53.67,301.91,55.78z"/>
		<path class="st0" d="M367.6,54.02l-16.56-24.81h17.06l7.19,13.74l8.88-13.74h17.06l-17.55,24.81l19.81,28.33h-16.84l-10.64-17.34
			l-12.47,17.34H346.8L367.6,54.02z"/>
		<path class="st0" d="M439.26,40.91h-16.42v8.88h15.5v11.7h-15.5v9.16h16.42v11.7h-30.23V29.21h30.23V40.91z"/>
		<path class="st0" d="M463.01,29.21v41.44h16.56v11.7H449.2V29.21H463.01z"/>
	</g>
</g>
<g id="Studio">
	<g>
		<path class="st0" d="M245.38,105.29c-0.69-0.56-1.37-0.97-2.05-1.23c-0.68-0.27-1.35-0.4-1.99-0.4c-0.81,0-1.47,0.19-1.99,0.58
			c-0.51,0.38-0.77,0.89-0.77,1.5c0,0.43,0.13,0.78,0.38,1.06c0.25,0.28,0.59,0.52,1.01,0.72s0.89,0.38,1.41,0.53
			c0.52,0.15,1.04,0.31,1.55,0.48c2.05,0.68,3.55,1.6,4.5,2.74c0.95,1.14,1.43,2.63,1.43,4.47c0,1.24-0.21,2.36-0.63,3.36
			s-1.03,1.86-1.83,2.58c-0.8,0.72-1.78,1.27-2.95,1.67c-1.16,0.4-2.48,0.59-3.95,0.59c-3.06,0-5.88-0.91-8.49-2.72l2.69-5.06
			c0.94,0.83,1.87,1.45,2.79,1.86c0.92,0.41,1.83,0.61,2.72,0.61c1.03,0,1.79-0.23,2.29-0.7c0.5-0.47,0.75-1,0.75-1.6
			c0-0.36-0.06-0.68-0.19-0.94c-0.13-0.27-0.34-0.51-0.64-0.74c-0.3-0.23-0.69-0.43-1.17-0.63c-0.48-0.19-1.06-0.41-1.75-0.64
			c-0.81-0.26-1.61-0.54-2.39-0.85c-0.78-0.31-1.47-0.72-2.08-1.23c-0.61-0.51-1.1-1.16-1.47-1.94c-0.38-0.78-0.56-1.77-0.56-2.96
			c0-1.2,0.2-2.28,0.59-3.25c0.39-0.97,0.95-1.8,1.66-2.5c0.72-0.69,1.59-1.23,2.63-1.62c1.04-0.38,2.2-0.58,3.48-0.58
			c1.19,0,2.45,0.17,3.75,0.5c1.3,0.33,2.55,0.82,3.75,1.46L245.38,105.29z"/>
		<path class="st0" d="M262.13,104.43v18.84h-6.28v-18.84h-5.16v-5.32h16.59v5.32H262.13z"/>
		<path class="st0" d="M276.35,99.11v13.13c0,0.7,0.03,1.42,0.08,2.16c0.05,0.74,0.21,1.4,0.48,2c0.27,0.6,0.69,1.08,1.27,1.46
			c0.58,0.37,1.39,0.56,2.43,0.56c1.05,0,1.85-0.19,2.42-0.56c0.57-0.37,0.99-0.86,1.27-1.46c0.28-0.6,0.44-1.27,0.49-2
			c0.05-0.74,0.08-1.46,0.08-2.16V99.11h6.25v14c0,3.76-0.86,6.5-2.58,8.23c-1.72,1.73-4.36,2.59-7.93,2.59
			c-3.57,0-6.21-0.86-7.94-2.59c-1.73-1.73-2.6-4.47-2.6-8.23v-14H276.35z"/>
		<path class="st0" d="M296.18,99.11h9.29c1.65,0,3.19,0.33,4.63,0.99c1.44,0.66,2.7,1.54,3.78,2.64c1.08,1.1,1.93,2.38,2.55,3.84
			c0.62,1.46,0.93,3,0.93,4.6c0,1.58-0.3,3.1-0.91,4.56c-0.61,1.46-1.45,2.75-2.53,3.86c-1.08,1.11-2.34,2-3.78,2.66
			c-1.44,0.66-2.99,0.99-4.66,0.99h-9.29V99.11z M302.46,117.94h1.44c1.09,0,2.06-0.17,2.91-0.51c0.85-0.34,1.58-0.81,2.16-1.41
			c0.58-0.6,1.04-1.31,1.35-2.13c0.31-0.82,0.46-1.73,0.46-2.71c0-0.96-0.16-1.86-0.48-2.69c-0.32-0.83-0.78-1.55-1.36-2.15
			c-0.58-0.6-1.31-1.07-2.16-1.41c-0.85-0.34-1.81-0.51-2.88-0.51h-1.44V117.94z"/>
		<path class="st0" d="M327.64,99.11v24.15h-6.28V99.11H327.64z"/>
		<path class="st0" d="M331.61,111.19c0-1.79,0.33-3.46,0.99-5.01c0.66-1.55,1.58-2.9,2.76-4.05c1.17-1.15,2.58-2.06,4.21-2.71
			c1.63-0.65,3.43-0.98,5.4-0.98c1.94,0,3.74,0.33,5.38,0.98c1.65,0.65,3.06,1.55,4.25,2.71c1.19,1.15,2.11,2.5,2.77,4.05
			c0.66,1.55,0.99,3.22,0.99,5.01c0,1.79-0.33,3.46-0.99,5.01c-0.66,1.55-1.59,2.9-2.77,4.05c-1.19,1.15-2.6,2.06-4.25,2.71
			c-1.64,0.65-3.44,0.98-5.38,0.98c-1.96,0-3.76-0.33-5.4-0.98c-1.64-0.65-3.04-1.55-4.21-2.71c-1.17-1.15-2.09-2.5-2.76-4.05
			C331.94,114.65,331.61,112.98,331.61,111.19z M338.18,111.19c0,0.96,0.18,1.85,0.54,2.66c0.36,0.81,0.85,1.52,1.47,2.11
			c0.62,0.6,1.34,1.06,2.16,1.39c0.82,0.33,1.69,0.5,2.61,0.5c0.92,0,1.79-0.17,2.61-0.5c0.82-0.33,1.55-0.79,2.18-1.39
			c0.63-0.6,1.13-1.3,1.49-2.11s0.54-1.7,0.54-2.66c0-0.96-0.18-1.85-0.54-2.66s-0.86-1.52-1.49-2.11c-0.63-0.6-1.36-1.06-2.18-1.39
			c-0.82-0.33-1.69-0.5-2.61-0.5c-0.92,0-1.79,0.17-2.61,0.5c-0.82,0.33-1.55,0.79-2.16,1.39c-0.62,0.6-1.11,1.3-1.47,2.11
			C338.36,109.34,338.18,110.22,338.18,111.19z"/>
	</g>
</g>
</svg>
